<?xml version="1.0" encoding="utf-8"?>
<!-- Generator: Adobe Illustrator 16.0.0, SVG Export Plug-In . SVG Version: 6.00 Build 0)  -->
<!DOCTYPE svg PUBLIC "-//W3C//DTD SVG 1.1//EN" "http://www.w3.org/Graphics/SVG/1.1/DTD/svg11.dtd">
<svg version="1.1" id="Layer_1" xmlns="http://www.w3.org/2000/svg" xmlns:xlink="http://www.w3.org/1999/xlink" x="0px" y="0px"
	 width="14px" height="20.001px" viewBox="0 0 14 20.001" enable-background="new 0 0 14 20.001" xml:space="preserve">
<path d="M12.184,0H1.556C0.048,0,0,1.327,0,1.327V18.56c0,0.584,0.232,0.932,0.528,1.139c0.545,0.383,1.81,0.292,2.533,0.292h9.189
	c1.705,0,1.752-1.327,1.752-1.327V1.354C14.002-0.015,12.184,0,12.184,0z M6.698,1.269h3.835c0.257,0,0.466,0.208,0.466,0.466
	S10.79,2.2,10.533,2.2H6.698c-0.257,0-0.466-0.208-0.466-0.466S6.441,1.269,6.698,1.269z M4.527,1.144
	c0.317,0,0.574,0.257,0.574,0.574S4.844,2.291,4.527,2.291S3.954,2.034,3.954,1.717S4.21,1.144,4.527,1.144z M7.001,19.154
	c-0.535,0-0.968-0.434-0.968-0.968s0.433-0.968,0.968-0.968c0.534,0,0.968,0.434,0.968,0.968S7.535,19.154,7.001,19.154z
	 M12.447,15.191c0,0.582-0.587,1.053-1.311,1.053H2.866c-0.724,0-1.31-0.471-1.31-1.053V4.798c0-0.582,0.586-1.052,1.31-1.052h8.27
	c0.724,0,1.311,0.471,1.312,1.053V15.191z"/>
</svg>
