<?xml version="1.0" encoding="utf-8"?>
<!-- Generator: Adobe Illustrator 16.0.0, SVG Export Plug-In . SVG Version: 6.00 Build 0)  -->
<!DOCTYPE svg PUBLIC "-//W3C//DTD SVG 1.1//EN" "http://www.w3.org/Graphics/SVG/1.1/DTD/svg11.dtd">
<svg version="1.1" id="Layer_1" xmlns="http://www.w3.org/2000/svg" xmlns:xlink="http://www.w3.org/1999/xlink" x="0px" y="0px"
	 width="30px" height="30px" viewBox="0 0 30 30" enable-background="new 0 0 30 30" xml:space="preserve">
<path fill="#FFFFFF" d="M29.37,0H0.63C0.282,0,0,0.283,0,0.63v28.741C0,29.717,0.282,30,0.63,30h15.27V19.977h-3.223
	c-0.278,0-0.505-0.227-0.505-0.506v-4.063c0-0.278,0.227-0.505,0.505-0.505h3.223v-2.805c0-3.695,2.327-6.083,5.929-6.083
	l3.206,0.005c0.278,0,0.503,0.227,0.503,0.504v3.773c0,0.278-0.226,0.505-0.504,0.505h-2.159c-1.488,0-1.761,0.581-1.761,1.724
	v2.377h3.77c0.134,0,0.262,0.054,0.356,0.148s0.147,0.223,0.147,0.356l-0.001,4.065c0,0.277-0.226,0.504-0.504,0.504h-3.769V30
	h8.257c0.348,0,0.63-0.281,0.63-0.629V0.63C30,0.283,29.718,0,29.37,0z"/>
</svg>
