<?xml version="1.0" encoding="utf-8"?>
<!-- Generator: Adobe Illustrator 16.0.0, SVG Export Plug-In . SVG Version: 6.00 Build 0)  -->
<!DOCTYPE svg PUBLIC "-//W3C//DTD SVG 1.1//EN" "http://www.w3.org/Graphics/SVG/1.1/DTD/svg11.dtd">
<svg version="1.1" id="Layer_1" xmlns="http://www.w3.org/2000/svg" xmlns:xlink="http://www.w3.org/1999/xlink" x="0px" y="0px"
	 width="14px" height="20.002px" viewBox="0 0 14 20.002" enable-background="new 0 0 14 20.002" xml:space="preserve">
<g>
	<g>
		<path d="M7.017,0.146c-0.518,0-0.931,0.401-0.931,0.897v4.635c0,0.635-0.507,1.156-1.183,1.195v-5.83
			c0-0.496-0.412-0.897-0.93-0.897c-0.518,0-0.93,0.401-0.93,0.897v5.83C2.367,6.833,1.86,6.312,1.86,5.677V1.043
			c0-0.496-0.413-0.897-0.93-0.897C0.412,0.146,0,0.547,0,1.043v4.635c0,1.52,1.183,2.777,2.717,2.967l-0.616,9.448
			c-0.005,0.07-0.006,0.152-0.002,0.223c0.065,0.992,0.956,1.746,1.991,1.684c1.035-0.062,1.822-0.916,1.757-1.906L5.228,8.645
			c1.534-0.19,2.719-1.447,2.719-2.967V1.043C7.947,0.547,7.535,0.146,7.017,0.146z M13.595,0.555c0-0.198-0.105-0.38-0.283-0.479
			c-0.178-0.1-0.397-0.1-0.576-0.002c-1.162,0.635-3.035,1.883-3.035,3.319v8.296c0,0.576,0.429,1.057,0.995,1.17l-0.343,5.285
			c-0.004,0.068-0.004,0.148,0.001,0.219c0.063,0.963,0.929,1.697,1.935,1.637c1.008-0.061,1.77-0.891,1.707-1.854L13.595,0.555z"/>
	</g>
</g>
</svg>
