<?xml version="1.0" encoding="utf-8"?>
<!-- Generator: Adobe Illustrator 16.0.0, SVG Export Plug-In . SVG Version: 6.00 Build 0)  -->
<!DOCTYPE svg PUBLIC "-//W3C//DTD SVG 1.1//EN" "http://www.w3.org/Graphics/SVG/1.1/DTD/svg11.dtd">
<svg version="1.1" id="Layer_1" xmlns="http://www.w3.org/2000/svg" xmlns:xlink="http://www.w3.org/1999/xlink" x="0px" y="0px"
	 width="30px" height="30px" viewBox="0 0 30 30" enable-background="new 0 0 30 30" xml:space="preserve">
<path fill="#FFFFFF" d="M28.646-0.002H1.352c-0.746,0-1.354,0.605-1.354,1.353v27.301c0,0.742,0.607,1.351,1.354,1.351h27.296
	c0.746,0,1.354-0.606,1.354-1.351V1.351C30.002,0.604,29.395-0.002,28.646-0.002z M20.236,15c0,2.893-2.346,5.234-5.236,5.234
	c-2.891,0-5.236-2.342-5.236-5.234c0-2.892,2.344-5.235,5.236-5.235C17.893,9.765,20.236,12.108,20.236,15z M26.252,26.252H3.748
	V13.125h2.47C6.089,13.73,6.014,14.357,6.014,15c0,4.956,4.031,8.986,8.986,8.986s8.986-4.03,8.986-8.986
	c0-0.643-0.075-1.27-0.203-1.875h2.469V26.252z M26.252,9.374h-5.626V3.748h5.626V9.374z"/>
</svg>
