<?xml version="1.0" encoding="utf-8"?>
<!-- Generator: Adobe Illustrator 16.0.0, SVG Export Plug-In . SVG Version: 6.00 Build 0)  -->
<!DOCTYPE svg PUBLIC "-//W3C//DTD SVG 1.1//EN" "http://www.w3.org/Graphics/SVG/1.1/DTD/svg11.dtd">
<svg version="1.1" id="Layer_1" xmlns="http://www.w3.org/2000/svg" xmlns:xlink="http://www.w3.org/1999/xlink" x="0px" y="0px"
	 width="14px" height="20.001px" viewBox="0 0 14 20.001" enable-background="new 0 0 14 20.001" xml:space="preserve">
<path d="M14,7.228V0.821C14,0.368,13.59,0,13.086,0H0.914C0.409,0,0,0.368,0,0.821v6.406c0,3.189,2.658,5.826,6.085,6.229v4.902
	H0.914C0.409,18.359,0,18.727,0,19.181c0,0.453,0.409,0.82,0.914,0.82h12.171c0.505,0,0.915-0.367,0.915-0.82
	c0-0.454-0.41-0.822-0.915-0.822H7.913v-4.902C11.342,13.053,14,10.417,14,7.228z M12.172,1.642v4.764H1.828V1.642H12.172z"/>
</svg>
